<?xml version="1.0" encoding="utf-8"?>
<!-- Generator: Adobe Illustrator 25.3.1, SVG Export Plug-In . SVG Version: 6.00 Build 0)  -->
<svg version="1.1" id="Layer_1" xmlns="http://www.w3.org/2000/svg" xmlns:xlink="http://www.w3.org/1999/xlink" x="0px" y="0px"
	 viewBox="0 0 256 256" style="enable-background:new 0 0 256 256;" xml:space="preserve">
<style type="text/css">
	.st0{fill:#C3C4FF;}
	.st1{fill:#A5A6FF;}
	.st2{fill:#696CFF;}
</style>
<g>
	<path class="st0" d="M190.5,253h-125C44.8,253,28,236.2,28,215.5v-125c0-13.8,11.2-25,25-25h150c13.8,0,25,11.2,25,25v125
		C228,236.2,211.2,253,190.5,253z"/>
	<path class="st1" d="M190.5,253h-125C44.8,253,28,236.2,28,215.5v-20.7h200v20.7C228,236.2,211.2,253,190.5,253z"/>
	<path class="st2" d="M165.5,115.5c-6.9,0-12.5-5.6-12.5-12.5c0,0,0,0,0,0V53c0-13.8-11.2-25-25-25s-25,11.2-25,25v50
		c0,6.9-5.6,12.5-12.5,12.5S78,109.9,78,103V53c0-27.6,22.4-50,50-50s50,22.4,50,50v50C178,109.9,172.4,115.5,165.5,115.5
		C165.5,115.5,165.5,115.5,165.5,115.5z"/>
</g>
</svg>
