<?xml version="1.0" encoding="utf-8"?>
<!-- Generator: Adobe Illustrator 25.3.1, SVG Export Plug-In . SVG Version: 6.00 Build 0)  -->
<svg version="1.1" id="Layer_1" xmlns="http://www.w3.org/2000/svg" xmlns:xlink="http://www.w3.org/1999/xlink" x="0px" y="0px"
	 viewBox="0 0 256 256" style="enable-background:new 0 0 256 256;" xml:space="preserve">
<style type="text/css">
	.st0{fill:#C3C4FF;}
	.st1{fill:#A5A6FF;}
	.st2{fill:#696CFF;}
</style>
<g>
	<g>
		<g>
			<polygon class="st0" points="103.1,197.6 87.4,125.4 117.1,17.7 208.1,144.4 			"/>
		</g>
	</g>
	<path class="st1" d="M15.3,5.2l101.8,12.4L87.4,125.4L5.4,22.9C-0.7,15.2,5.6,4.1,15.3,5.2z"/>
	<polygon class="st2" points="233.8,82.8 208.1,144.4 171.9,94 	"/>
	<path class="st2" d="M87.4,125.4L52,243.8c-1.5,5.1,4.5,9.2,8.6,5.8l40.5-32.6c3.2-2.6,4.7-6.8,3.8-10.8L87.4,125.4z"/>
	<path class="st0" d="M233.8,82.8l17.4,15.9c3.7,3.3,1.3,9.4-3.6,9.5l-24.5,0.3L233.8,82.8z"/>
</g>
</svg>
