<?xml version="1.0" encoding="utf-8"?>
<!-- Generator: Adobe Illustrator 25.3.1, SVG Export Plug-In . SVG Version: 6.00 Build 0)  -->
<svg version="1.1" id="Layer_1" xmlns="http://www.w3.org/2000/svg" xmlns:xlink="http://www.w3.org/1999/xlink" x="0px" y="0px"
	 viewBox="0 0 256 256" style="enable-background:new 0 0 256 256;" xml:space="preserve">
<style type="text/css">
	.st0{fill:#696CFF;}
	.st1{fill:#A5A6FF;}
	.st2{fill:#C3C4FF;}
</style>
<g>
	<path class="st0" d="M240.1,123.5c-0.4,0-0.7,0-1.1,0c-6.9-0.6-12-6.7-11.4-13.6c0,0,0,0,0,0c0.2-2.2,0.3-4.4,0.3-6.6
		c0-41.5-33.7-75.2-75.2-75.2c-2.2,0-4.4,0.1-6.6,0.3c-6.9,0.6-13-4.6-13.5-11.5C132,10,137.1,4,143.9,3.4c2.9-0.3,5.8-0.4,8.7-0.4
		C208.1,3.1,252.9,47.9,253,103.3c0,2.9-0.1,5.8-0.4,8.7C252.1,118.5,246.6,123.5,240.1,123.5z"/>
	<path class="st1" d="M190.3,115.9c-6.9,0-12.5-5.6-12.5-12.5c0,0,0,0,0,0c0-13.8-11.2-25.1-25.1-25.1c-6.9,0-12.5-5.6-12.5-12.5
		s5.6-12.5,12.5-12.5c27.7,0,50.1,22.5,50.2,50.2C202.8,110.2,197.2,115.9,190.3,115.9C190.3,115.9,190.3,115.9,190.3,115.9z"/>
	<path class="st2" d="M214.3,253c-1.6,0-3.2-0.1-4.9-0.3c-52.3-6.8-100.9-30.6-138.3-67.9C34,147.5,10.1,98.9,3.3,46.6
		c-1.4-10.9,1.9-21.8,9.2-30C19.6,8.5,29.9,3.8,40.7,3.8h38c18.3-0.1,34,13.1,37.1,31.2c0.4,2.8,0.9,5.6,1.6,8.4
		c1.2,5.6,2.9,11.1,4.9,16.5c4.4,12.2-1.3,25.7-13,31.1l-5.7,2.7c14,24.6,34.3,45,58.9,58.9l2.7-5.7c5.4-11.7,18.9-17.4,31.1-13
		c5.4,2,10.9,3.6,16.5,4.8c2.8,0.6,5.6,1.1,8.4,1.6c18.1,3,31.3,18.7,31.2,37.1v38c0,10.8-4.6,21-12.7,28.2
		C232.5,249.6,223.6,253,214.3,253z"/>
</g>
</svg>
