<?xml version="1.0" encoding="utf-8"?>
<!-- Generator: Adobe Illustrator 25.3.1, SVG Export Plug-In . SVG Version: 6.00 Build 0)  -->
<svg version="1.1" id="Layer_1" xmlns="http://www.w3.org/2000/svg" xmlns:xlink="http://www.w3.org/1999/xlink" x="0px" y="0px"
	 viewBox="0 0 256 256" style="enable-background:new 0 0 256 256;" xml:space="preserve">
<style type="text/css">
	.st0{fill:#696CFF;}
	.st1{fill:#C3C4FF;}
</style>
<g>
	<circle class="st0" cx="110" cy="238.8" r="14.1"/>
	<circle class="st0" cx="186.8" cy="238.8" r="14.1"/>
	<path class="st1" d="M239.1,211.4H72.4c-23,0-41.7-18.7-41.7-41.7c0-21.3,16-39.2,37.2-41.4L43,41c-1.7-5.9-7.2-10-13.4-10.1H16.9
		C9.2,30.9,3,24.7,3,17S9.2,3.1,16.9,3.1h12.8c18.6,0.1,34.9,12.4,40.1,30.2l29.9,104.9c2.1,7.4-2.2,15.1-9.5,17.2
		c-1.2,0.4-2.5,0.5-3.8,0.5H72.4c-7.7,0-13.9,6.2-13.9,13.9s6.2,13.9,13.9,13.9h166.7c7.7,0,13.9,6.2,13.9,13.9
		S246.8,211.4,239.1,211.4z"/>
	<path class="st0" d="M69.7,33.3l29.9,104.9c2.1,7.4-2.2,15.1-9.5,17.2c-1.2,0.4-2.5,0.5-3.8,0.5h104c18.6-0.1,34.9-12.4,40.1-30.2
		l22-77.1c2.1-7.4-2.2-15.1-9.5-17.2c-1.2-0.4-2.5-0.5-3.8-0.5H68.8C69.1,31.7,69.5,32.5,69.7,33.3z"/>
</g>
</svg>
