<?xml version="1.0" encoding="utf-8"?>
<!-- Generator: Adobe Illustrator 25.3.1, SVG Export Plug-In . SVG Version: 6.00 Build 0)  -->
<svg version="1.1" id="Layer_1" xmlns="http://www.w3.org/2000/svg" xmlns:xlink="http://www.w3.org/1999/xlink" x="0px" y="0px"
	 viewBox="0 0 500 500" style="enable-background:new 0 0 500 500;" xml:space="preserve">
<style type="text/css">
	.st0{fill:#696CFF;}
	.st1{fill:#FFFFFF;}
</style>
<g>
	<circle class="st0" cx="250" cy="250" r="250"/>
	<g>
		<path class="st1" d="M213.5,312.5h-60.9c-4.7,0-7.2-3.8-5.6-8.5l64.4-187c1.6-4.7,6.7-8.5,11.4-8.5h60.9c4.7,0,7.2,3.8,5.6,8.5
			l-64.4,187C223.3,308.7,218.2,312.5,213.5,312.5z"/>
		<path class="st1" d="M277.2,391.5h-60.9c-4.7,0-7.2-3.8-5.6-8.5l64.4-187c1.6-4.7,6.7-8.5,11.4-8.5h60.9c4.7,0,7.2,3.8,5.6,8.5
			l-64.4,187C287,387.7,281.9,391.5,277.2,391.5z"/>
	</g>
</g>
</svg>
