<?xml version="1.0" encoding="utf-8"?>
<!-- Generator: Adobe Illustrator 25.3.1, SVG Export Plug-In . SVG Version: 6.00 Build 0)  -->
<svg version="1.1" id="Layer_1" xmlns="http://www.w3.org/2000/svg" xmlns:xlink="http://www.w3.org/1999/xlink" x="0px" y="0px"
	 viewBox="0 0 500 95.1" style="enable-background:new 0 0 500 95.1;" xml:space="preserve">
<style type="text/css">
	.st0{fill:#696CFF;}
</style>
<g>
	<path id="Path_2635_1_" class="st0" d="M46.1,32.9V19.6c0-6.2-2-11.1-5.9-14.5S30.5,0,22.9,0S9.6,1.8,5.7,5.2S0,13.4,0,19.6v55.9
		C0,81.8,2,86.6,5.9,90s9.7,5.1,17.3,5.1s13.4-1.7,17.2-5.1s5.7-8.2,5.7-14.5v-7.7h-9.8v7.7c0,7.5-4.4,11.2-13.3,11.2
		S9.7,83,9.7,75.5V19.6c0-7.5,4.4-11.2,13.3-11.2s13.3,3.7,13.3,11.2v13.3H46.1z"/>
	<path id="Path_2636_1_" class="st0" d="M89.9,2.1L72.3,49L54.7,2.1H44.3l23.1,58.3V93h9.8V60.6l23.1-58.5H89.9z"/>
	<path id="Path_2637_1_" class="st0" d="M136.4,45.4c6.6-2.2,9.9-7.3,9.9-15.2v-8.4c0-6.2-1.9-11-5.7-14.4
		c-3.8-3.4-9.3-5.2-16.6-5.2h-21V93h22.5c7.4,0,12.9-1.7,16.6-5.1c3.7-3.4,5.6-8.2,5.6-14.5V60.9C147.7,52.6,143.9,47.4,136.4,45.4z
		 M112.8,10.5h11.3c3.4-0.2,6.7,1,9.2,3.4c2.1,2.1,3.3,4.9,3.3,7.8v8.4c0,3.1-1.2,6-3.3,8.2c-2.4,2.5-5.7,3.8-9.2,3.6h-11.3V10.5z
		 M137.9,73.5c0,3-1.1,5.8-3.3,7.9c-2.5,2.3-5.8,3.5-9.2,3.3h-12.7V49h12.7c3.4-0.2,6.8,1.2,9.1,3.7c2.1,2.2,3.3,5.1,3.4,8.2V73.5
		L137.9,73.5z"/>
	<path id="Path_2638_1_" class="st0" d="M162.5,84.6V51.1h24.4v-8.4h-24.5V10.5h30.1V2.1h-39.8V93h41.2v-8.4H162.5z"/>
	<path id="Path_2639_1_" class="st0" d="M229.2,59.5c8.2-2.6,12.3-8.7,12.3-18.2V21.7c0-6.2-1.9-11-5.7-14.4s-9.3-5.2-16.6-5.2
		h-21.1V93h9.8V60.9h11.3L235.6,93h10.8L229.2,59.5z M219.2,52.5h-11.3v-42h11.3c3.3-0.2,6.6,0.8,9.2,2.9c2.2,2.1,3.4,5.2,3.2,8.2
		v19.6C231.7,48.8,227.5,52.5,219.2,52.5z"/>
	<path id="Path_2641_1_" class="st0" d="M296.9,76.9c0,6.2-1.8,10.7-5.4,13.7c-3.7,3.1-9.5,4.6-17.1,4.6c-7.6,0-13.4-1.6-17.1-4.6
		c-3.6-3-5.4-7.5-5.4-13.7V66.7h5.9v10.8c-0.2,3.8,1.5,7.5,4.5,9.9c2.8,2.3,6.9,3.4,12.2,3.4s9.4-1.1,12.2-3.4
		c3-2.3,4.6-5.9,4.5-9.7c0.1-3-0.3-6-1.2-8.8c-1.1-2.7-2.8-5.2-5-7.2l-25.8-25.2c-2.4-2.3-4.4-5-5.7-8.1c-1.1-3.2-1.6-6.7-1.5-10.1
		c0-5.9,1.7-10.3,5.3-13.5S266.7,0,274.3,0c14.6,0,21.4,5.8,21.4,18.3v10.2h-5.9V17.8c0.2-3.8-1.4-7.4-4.2-9.9
		c-2.7-2.3-6.6-3.4-11.7-3.4c-5.1,0-9,1.2-11.7,3.4c-2.8,2.4-4.4,6-4.2,9.7c-0.1,3,0.3,5.9,1.1,8.8c1.1,2.7,2.9,5.1,5.1,7l26.1,25.1
		c2.3,2.4,4.1,5.2,5.4,8.2C296.5,70,297,73.5,296.9,76.9z"/>
	<path id="Path_2643_1_" class="st0" d="M342,7c-3.5-3.2-8.8-4.8-15.9-4.8h-19.9V93h5.9V63.7h14c7.1,0,12.5-1.6,15.9-4.8
		c3.5-3.2,5.1-7.6,5.1-13.5V20.5C347.2,14.6,345.5,10.2,342,7z M341.4,45.3c0,6.3-2.6,13.9-15.2,13.9h-14V6.6h14
		c4-0.2,8,1.1,11.1,3.6c2.8,2.7,4.3,6.4,4.1,10.3V45.3z"/>
	<path id="Path_2645_1_" class="st0" d="M381.8,2.1h-11.9L349.3,93h5.7l5-21.9h31.5l5,21.9h5.8L381.8,2.1z M360.9,66.7L373.5,11h4.3
		l12.6,55.7H360.9z"/>
	<path id="Path_2647_1_" class="st0" d="M445,30V18.3c0-6.3-2.8-13.9-16.1-13.9s-16.1,7.6-16.1,13.9v58.5c0,6.3,2.8,13.9,16.1,13.9
		S445,83.1,445,76.8v-5.9h5.9v5.9c0,5.9-1.7,10.4-5.3,13.5c-3.6,3.2-9.1,4.8-16.5,4.8s-13-1.6-16.7-4.8c-3.6-3.2-5.4-7.6-5.4-13.5
		V18.3c0-5.9,1.7-10.4,5.3-13.5c3.5-3.1,9.1-4.8,16.5-4.8s13,1.6,16.7,4.8c3.6,3.2,5.4,7.6,5.4,13.5V30H445z"/>
	<path id="Path_2649_1_" class="st0" d="M500.2,88.6V93h-38.9V2.1h37.4v4.4h-31.5v38.1h25.7v4.4h-25.7v39.6H500.2z"/>
</g>
</svg>
