<?xml version="1.0" encoding="utf-8"?>
<!-- Generator: Adobe Illustrator 25.3.1, SVG Export Plug-In . SVG Version: 6.00 Build 0)  -->
<svg version="1.1" id="Layer_1" xmlns="http://www.w3.org/2000/svg" xmlns:xlink="http://www.w3.org/1999/xlink" x="0px" y="0px"
	 viewBox="0 0 256 256" style="enable-background:new 0 0 256 256;" xml:space="preserve">
<style type="text/css">
	.st0{fill:#A5A6FF;}
	.st1{fill:#C3C4FF;}
	.st2{fill:#696CFF;}
</style>
<g>
	<path class="st0" d="M228,140.5H28c-6.9,0-12.5-5.6-12.5-12.5c0,0,0,0,0,0v-12.5C15.5,94.8,32.3,78,53,78h150
		c20.7,0,37.5,16.8,37.5,37.5V128C240.5,134.9,234.9,140.5,228,140.5C228,140.5,228,140.5,228,140.5z"/>
	<path class="st1" d="M40.5,140.5v75c0,20.7,16.8,37.5,37.5,37.5h100c20.7,0,37.5-16.8,37.5-37.5v-75
		C215.5,140.5,40.5,140.5,40.5,140.5z"/>
	<path class="st2" d="M159.2,3c-11.8,0-23,4.8-31.2,13.2C111.1-1,83.5-1.4,66.1,15.5C48.9,32.4,48.6,60,65.5,77.4
		c8.2,8.4,19.5,13.1,31.2,13.1h18.7V253h25V90.5h18.7c24.1,0,43.7-19.6,43.7-43.7S183.4,3,159.2,3z M115.5,65.5H96.7
		C86.4,65.5,78,57.1,78,46.7S86.4,28,96.7,28c10.4,0,18.7,8.4,18.7,18.7V65.5z M159.2,65.5h-18.7V46.7c0-10.4,8.4-18.7,18.7-18.7
		c10.4,0,18.7,8.4,18.7,18.7S169.6,65.5,159.2,65.5z"/>
</g>
</svg>
