<?xml version="1.0" encoding="utf-8"?>
<!-- Generator: Adobe Illustrator 25.3.1, SVG Export Plug-In . SVG Version: 6.00 Build 0)  -->
<svg version="1.1" id="Layer_1" xmlns="http://www.w3.org/2000/svg" xmlns:xlink="http://www.w3.org/1999/xlink" x="0px" y="0px"
	 viewBox="0 0 256 256" style="enable-background:new 0 0 256 256;" xml:space="preserve">
<style type="text/css">
	.st0{fill-rule:evenodd;clip-rule:evenodd;fill:#696CFF;}
	.st1{fill-rule:evenodd;clip-rule:evenodd;fill:#A5A6FF;}
	.st2{fill-rule:evenodd;clip-rule:evenodd;fill:#C3C4FF;}
</style>
<g>
	<path class="st0" d="M8.7,131.2L58,157c1.4,0.8,3.2,0.8,4.7,0.1l72.3-33.2L253,10.6L9.5,112.1C1.2,115.6,0.7,127.1,8.7,131.2z"/>
	<path class="st1" d="M97.7,214.6l-5.9-47.8c-0.1-0.8,0.2-1.7,0.8-2.2L231,31.7c2.3-2.2,5.9,0.9,4,3.5L102.4,215.9
		C101,217.8,98,217,97.7,214.6z"/>
	<path class="st2" d="M179.3,238.1L253,10.6L91.6,165.5l69.9,76.5C166.9,248,176.8,245.8,179.3,238.1z"/>
</g>
</svg>
