<?xml version="1.0" encoding="utf-8"?>
<!-- Generator: Adobe Illustrator 27.7.0, SVG Export Plug-In . SVG Version: 6.00 Build 0)  -->
<svg version="1.1" id="Layer_1" xmlns="http://www.w3.org/2000/svg" xmlns:xlink="http://www.w3.org/1999/xlink" x="0px" y="0px"
	 viewBox="0 0 512 512" style="enable-background:new 0 0 512 512;" xml:space="preserve">
<style type="text/css">
	.st0{fill:#8592A3;}
	.st1{fill:#EBEEF0;}
</style>
<rect x="-0.07" y="0.25" class="st0" width="512" height="512"/>
<path class="st1" d="M406.63,444.63l-82.11-40.57c-10.63-4.83-17.39-16.42-17.39-28.02v-31.88c1.93-2.9,4.83-5.8,7.73-9.66
	c11.59-15.46,19.32-32.85,25.12-51.2c10.63-2.9,18.35-12.56,18.35-24.15v-33.81c0-7.73-3.86-14.49-8.69-19.32v-50.23
	c0,0,9.66-77.28-94.67-77.28s-94.67,77.28-94.67,77.28v49.27c-4.83,4.83-8.69,11.59-8.69,19.32v33.81
	c0,11.59,7.73,21.25,18.35,24.15c5.8,18.35,14.49,35.74,25.12,51.2c2.9,3.86,5.8,7.73,7.73,9.66v31.88
	c0,11.59-6.76,22.22-17.39,28.02l-82.11,40.57c-19.32,11.59-39.61,17.39-38.64,68.59H254h189.34
	C446.24,462.99,424.99,456.22,406.63,444.63z"/>
</svg>
