<?xml version="1.0" encoding="utf-8"?>
<!-- Generator: Adobe Illustrator 25.3.1, SVG Export Plug-In . SVG Version: 6.00 Build 0)  -->
<svg version="1.1" id="Layer_1" xmlns="http://www.w3.org/2000/svg" xmlns:xlink="http://www.w3.org/1999/xlink" x="0px" y="0px"
	 viewBox="0 0 256 256" style="enable-background:new 0 0 256 256;" xml:space="preserve">
<style type="text/css">
	.st0{fill:#C3C4FF;}
	.st1{fill:#696CFF;}
	.st2{fill:#A5A6FF;}
</style>
<g>
	<path class="st0" d="M83.6,16.9c-13.8,0-25,11.2-25,25v169.4c0,15.3-12.4,27.8-27.8,27.8h180.6c23,0,41.7-18.7,41.7-41.7v0V41.9
		c0-13.8-11.2-25-25-25L83.6,16.9z"/>
	<path class="st1" d="M58.6,211.3V72.4H28c-13.8,0-25,11.2-25,25v116.7c0,13.8,11.2,25,25,25h2.8C46.1,239.1,58.6,226.7,58.6,211.3z
		"/>
	<path class="st2" d="M192.5,90.5h-75c-6.9,0-12.5-5.6-12.5-12.5s5.6-12.5,12.5-12.5h75c6.9,0,12.5,5.6,12.5,12.5
		S199.4,90.5,192.5,90.5z"/>
	<path class="st2" d="M192.5,140.5H180c-6.9,0-12.5-5.6-12.5-12.5s5.6-12.5,12.5-12.5h12.5c6.9,0,12.5,5.6,12.5,12.5
		S199.4,140.5,192.5,140.5z"/>
	<path class="st2" d="M130,140.5h-12.5c-6.9,0-12.5-5.6-12.5-12.5s5.6-12.5,12.5-12.5H130c6.9,0,12.5,5.6,12.5,12.5
		S136.9,140.5,130,140.5z"/>
	<path class="st2" d="M192.5,190.5H180c-6.9,0-12.5-5.6-12.5-12.5c0-6.9,5.6-12.5,12.5-12.5h12.5c6.9,0,12.5,5.6,12.5,12.5
		C205,184.9,199.4,190.5,192.5,190.5z"/>
	<path class="st2" d="M130,190.5h-12.5c-6.9,0-12.5-5.6-12.5-12.5c0-6.9,5.6-12.5,12.5-12.5H130c6.9,0,12.5,5.6,12.5,12.5
		C142.5,184.9,136.9,190.5,130,190.5z"/>
</g>
</svg>
