<?xml version="1.0" encoding="utf-8"?>
<!-- Generator: Adobe Illustrator 25.3.1, SVG Export Plug-In . SVG Version: 6.00 Build 0)  -->
<svg version="1.1" id="Layer_1" xmlns="http://www.w3.org/2000/svg" xmlns:xlink="http://www.w3.org/1999/xlink" x="0px" y="0px"
	 viewBox="0 0 256 256" style="enable-background:new 0 0 256 256;" xml:space="preserve">
<style type="text/css">
	.st0{fill:#696CFF;}
	.st1{fill:#A5A6FF;}
	.st2{fill:#C3C4FF;}
</style>
<g>
	<path class="st0" d="M251.3,69.7l-19.8,30.4c-3.2,4.9-9.8,6.1-14.5,2.6c-13.8-10-45.4-25.9-96.3-12.9
		c-19.3,4.9-41.8,16.4-59.6,47.7c0,0-21.9-90.1,60.3-101.1c73.2-9.8,112,8.9,127.2,19.3C253.1,58.9,254.4,65.1,251.3,69.7z"/>
	<path class="st1" d="M61.1,137.6c0,0,29.5-84.5,122.6-78.9c6,0.4,11-4.5,10.7-10.5l-1.3-33.6c-0.2-5.3-4.4-9.5-9.7-9.7
		C156.6,3.8,80.2,12.1,61.1,137.6z"/>
	<path class="st2" d="M61.7,38.6c1.3-2.3-1.3-4.8-3.5-3.4c-13.3,8.3-38.3,28.5-50.7,68.6c-11.9,38.3,0.6,85.8,31,115.2
		c22.4,21.6,54.1,33.1,85.2,32.2c33.2-1,66.4-14.3,86.4-41.8c8.2-11.3,15.3-24.2,18.8-37.7c3.4-13.1,4.3-26.7,4.5-40.1c0-1,0-2,0-3
		c0-2.7-1-5.3-3-7.3c-8-7.9-31.4-28.3-63.8-30.7c-2.1-0.2-3.4,2.2-2.2,4c1.9,2.7,3.6,5.8,4.1,6.6c5.4,8.5,9.2,18.1,10.2,28.2
		c3.1,30.4-21,62.3-51.5,66.4c-6.8,0.9-13.9,0.7-20.6-0.6c-25.9-5-43.4-25.8-52.7-49.4c-1.1-2.7-2.1-5.5-3-8.2
		C45.9,122,39.7,76.4,61.7,38.6z"/>
	<path class="st0" d="M61.1,137.6c0,0-35.2-75.6,39.8-129.7c5-3.6,12-2,14.9,3.4l10.4,19.4c2.6,4.9,0.8,11-4.1,13.7
		C105.4,53.4,71,78.7,61.1,137.6z"/>
</g>
</svg>
