<?xml version="1.0" encoding="utf-8"?>
<!-- Generator: Adobe Illustrator 25.3.1, SVG Export Plug-In . SVG Version: 6.00 Build 0)  -->
<svg version="1.1" id="Layer_1" xmlns="http://www.w3.org/2000/svg" xmlns:xlink="http://www.w3.org/1999/xlink" x="0px" y="0px"
	 viewBox="0 0 256 256" style="enable-background:new 0 0 256 256;" xml:space="preserve">
<style type="text/css">
	.st0{fill:#C3C4FF;}
	.st1{fill:#696CFF;}
</style>
<g>
	<path class="st0" d="M227.7,30.8c-1.4-6.8-8-11.1-14.8-9.7c-27,5.7-55.1-0.1-77.8-15.8c-4.3-3-10-3-14.3,0
		C98.2,21,70.1,26.8,43.1,21.1c-0.8-0.2-1.7-0.3-2.6-0.3c-6.9,0-12.5,5.6-12.5,12.5v93.2c0,36.3,17.6,70.4,47.1,91.5l45.6,32.6
		c2.1,1.5,4.7,2.3,7.3,2.3c2.6,0,5.1-0.8,7.3-2.3l45.6-32.6c29.5-21.1,47.1-55.2,47.1-91.5V33.3C228,32.5,227.9,31.6,227.7,30.8z
		 M165.1,115.5c0,0-0.1,0.1-0.1,0.1l-42.5,42.5c-2.3,2.3-5.5,3.7-8.8,3.7c-3.3,0-6.5-1.3-8.8-3.7l-20-20c-4.8-4.9-4.8-12.8,0.1-17.7
		c4.9-4.8,12.7-4.8,17.6,0l11.2,11.2l33.7-33.7c4.9-4.9,12.8-5,17.7-0.1C169.9,102.7,169.9,110.6,165.1,115.5z"/>
	<path class="st1" d="M147.3,97.9l-33.7,33.7l-11.2-11.2c-4.9-4.8-12.7-4.8-17.6,0c-4.9,4.8-5,12.8-0.1,17.7l20,20
		c2.3,2.3,5.5,3.7,8.8,3.7c3.3,0,6.5-1.3,8.8-3.7l42.5-42.5c0,0,0.1-0.1,0.1-0.1c4.9-4.9,4.8-12.8-0.1-17.7
		C160.1,93,152.1,93,147.3,97.9z"/>
</g>
</svg>
