<?xml version="1.0" encoding="utf-8"?>
<!-- Generator: Adobe Illustrator 25.3.1, SVG Export Plug-In . SVG Version: 6.00 Build 0)  -->
<svg version="1.1" id="Layer_1" xmlns="http://www.w3.org/2000/svg" xmlns:xlink="http://www.w3.org/1999/xlink" x="0px" y="0px"
	 viewBox="0 0 256 256" style="enable-background:new 0 0 256 256;" xml:space="preserve">
<style type="text/css">
	.st0{fill:#A5A6FF;}
	.st1{fill:#696CFF;}
	.st2{fill:#C3C4FF;}
</style>
<g>
	<g>
		<path d="M128,160.9c-7.9,0-13.2-5.3-13.2-13.2l0,0v-39.5c0-7.9,5.3-13.2,13.2-13.2s13.2,5.3,13.2,13.2v39.5
			C141.2,155.6,135.9,160.9,128,160.9L128,160.9z"/>
		<g>
			<path class="st0" d="M141.2,43.3V30.6c0-0.4,0-0.9-0.1-1.3h-26.2c0,0.4-0.1,0.9-0.1,1.3v12.7c4.3-0.5,8.7-0.8,13.2-0.8
				C132.5,42.5,136.8,42.8,141.2,43.3z"/>
			<path class="st1" d="M154.3,29.3c7.9,0,13.2-5.3,13.2-13.2S162.2,3,154.3,3h-52.6c-7.9,0-13.2,5.3-13.2,13.2s5.3,13.2,13.2,13.2
				h13.2h26.2H154.3z"/>
			<path class="st2" d="M141.2,43.3c-4.3-0.5-8.7-0.8-13.2-0.8c-4.5,0-8.8,0.3-13.2,0.8c-51.7,6.5-92.1,51-92.1,104.4
				C22.7,205.6,70.1,253,128,253s105.3-47.4,105.3-105.3C233.3,94.3,192.9,49.8,141.2,43.3z"/>
		</g>
		<path class="st0" d="M141.2,147.7c0,7.9-5.3,13.2-13.2,13.2l0,0c-7.9,0-13.2-5.3-13.2-13.2l0,0v-39.5c0-7.9,5.3-13.2,13.2-13.2
			s13.2,5.3,13.2,13.2V147.7z"/>
		<path class="st1" d="M45.1,83.3c5.3-6.6,11.8-13.2,18.4-18.4L51.7,53c-5.3-5.3-13.2-5.3-18.4,0s-5.3,13.2,0,18.4L45.1,83.3z"/>
		<path class="st1" d="M210.9,83.3l11.8-11.8c5.3-5.3,5.3-13.2,0-18.4s-13.2-5.3-18.4,0l-11.8,11.8
			C199.1,70.1,205.6,76.7,210.9,83.3z"/>
	</g>
	<circle class="st1" cx="128" cy="147.7" r="14.1"/>
</g>
</svg>
