<?xml version="1.0" encoding="utf-8"?>
<!-- Generator: Adobe Illustrator 25.3.1, SVG Export Plug-In . SVG Version: 6.00 Build 0)  -->
<svg version="1.1" id="Layer_1" xmlns="http://www.w3.org/2000/svg" xmlns:xlink="http://www.w3.org/1999/xlink" x="0px" y="0px"
	 viewBox="0 0 256 256" style="enable-background:new 0 0 256 256;" xml:space="preserve">
<style type="text/css">
	.st0{fill:#C3C4FF;}
	.st1{fill:#696CFF;}
</style>
<g>
	<path class="st0" d="M192.6,242.2c-5.1,0-10.1-1.7-14.1-4.8l-45.8-35.5L102,235.7c-4.2,4.6-11.4,5-16.1,0.8
		c-1.5-1.4-2.6-3.2-3.2-5.1l-23-75.9l-41.2-14.3c-12.1-4.2-18.5-17.4-14.3-29.5c2.2-6.3,7-11.3,13.1-13.8L221,15.5
		c11.9-4.8,25.4,0.9,30.2,12.8c1.7,4.2,2.2,8.9,1.3,13.3l-37.1,182C213.2,234.4,203.7,242.2,192.6,242.2z"/>
	<path class="st1" d="M93.6,239.5c-5,0-9.4-3.3-10.9-8.1L58.1,150c-1.6-5.2,0.8-10.9,5.6-13.4l120.1-62.5c5.6-2.9,12.4-0.7,15.3,4.8
		c2.3,4.4,1.5,9.8-2,13.3l-80.5,80.5l-11.9,57.6c-1,5.1-5.4,8.8-10.6,9.1C94,239.5,93.8,239.5,93.6,239.5z"/>
</g>
</svg>
