<?xml version="1.0" encoding="utf-8"?>
<!-- Generator: Adobe Illustrator 25.3.1, SVG Export Plug-In . SVG Version: 6.00 Build 0)  -->
<svg version="1.1" id="Layer_1" xmlns="http://www.w3.org/2000/svg" xmlns:xlink="http://www.w3.org/1999/xlink" x="0px" y="0px"
	 viewBox="0 0 256 256" style="enable-background:new 0 0 256 256;" xml:space="preserve">
<style type="text/css">
	.st0{fill:#C3C4FF;}
	.st1{fill:#696CFF;}
</style>
<g>
	<path class="st0" d="M128,253L128,253c-20.9,0-41.5-5.2-59.8-15.2l-49.4,12.9c-7.5,2-14.3-4.9-12.3-12.4l13.1-47.9
		C-14.8,130.6,5.7,54.1,65.6,19.7c59.7-34.4,136.4-13.8,170.8,45.9c34.5,59.8,13.9,136.3-45.9,170.8C171.4,247.2,149.9,253,128,253z
		"/>
	<path class="st1" d="M200.7,179.6c-5.5,9.1-14.6,15.5-25,17.6c-7.8,1.3-15.8,0.8-23.3-1.5c-7.2-2.2-14.2-4.8-21.1-7.8
		c-25.6-12.8-47.4-32.1-63.3-55.9c-8.7-11-13.9-24.3-15.1-38.3c-0.2-11.7,4.5-22.9,13-30.9c2.5-2.9,6.1-4.5,9.9-4.6
		c2.5,0,4.9,0,7.1,0.1c2.3,0.1,5.3-0.9,8.3,6.4c3.1,7.4,10.5,25.7,11.4,27.5c1.2,2,1.3,4.4,0.3,6.5c-0.9,2.2-2.2,4.3-3.7,6.2
		c-1.9,2.2-3.9,4.8-5.6,6.5c-1.9,1.8-3.8,3.9-1.6,7.6c5.6,9.5,12.5,18.2,20.6,25.7c8.8,7.8,18.9,14,29.8,18.4c3.7,1.9,5.9,1.5,8-0.9
		c2.2-2.5,9.3-10.8,11.7-14.5c2.5-3.7,4.9-3.1,8.3-1.9s21.6,10.2,25.3,12.1c3.7,1.9,6.2,2.8,7.1,4.3
		C203.8,167.9,203.1,174,200.7,179.6L200.7,179.6z"/>
</g>
</svg>
